<svg width="none" height="none" viewBox="0 0 36 36" fill="none" xmlns="http://www.w3.org/2000/svg">
<path d="M35.6403 9.66616L33.8368 7.8628C33.5965 7.62198 33.3197 7.50195 33.0067 7.50195C32.6945 7.50195 32.4178 7.62198 32.1775 7.8628L18.0002 22.0393L3.82352 7.86318C3.58308 7.62236 3.30638 7.50233 2.9938 7.50233C2.68109 7.50233 2.40439 7.62236 2.16408 7.86318L0.360848 9.66666C0.12003 9.90697 0 10.1837 0 10.4964C0 10.8088 0.120409 11.0855 0.360848 11.3259L17.1705 28.1359C17.4108 28.3763 17.6876 28.4964 18.0002 28.4964C18.3128 28.4964 18.5891 28.3763 18.8293 28.1359L35.6403 11.3259C35.8806 11.0854 36 10.8087 36 10.4964C36 10.1837 35.8806 9.90697 35.6403 9.66616Z" fill="black"/>
</svg>
